# xmcd
#
# Track frame offsets:
#	150
#	5632
#	14185
#	27155
#	38234
#	45720
#	59526
#	72638
#	82292
#	90469
#
# Disc length: 1370 seconds
#
# Revision: 0
# Processed by: cddbd v1.5.2PL0 Copyright (c) Steve Scherf et al.
# Submitted via: EasyCDDAExtractor 2010.6.0.0
#
DISCID=8c05580a
DTITLE=Lynnfield Middle School Pioneer Singers - Snowdance
DYEAR=1900
DGENRE=
TTITLE0=Procession (from a Ceremony of Carols)
TTITLE1=Gloria Tibi (from Mass)
TTITLE2=Christmas Time is Here
TTITLE3=Donkey Carol
TTITLE4=Il Est Ne, Le Divin Enfant
TTITLE5=Suo-Gan
TTITLE6=Ocho Kandelikas
TTITLE7=A New Year Carol
TTITLE8=Children Go Where I Send Thee
TTITLE9=After This Night
EXTD=
EXTT0=
EXTT1=
EXTT2=
EXTT3=
EXTT4=
EXTT5=
EXTT6=
EXTT7=
EXTT8=
EXTT9=
PLAYORDER=
